<?xml version="1.0" standalone="no"?>
<!DOCTYPE svg PUBLIC "-//W3C//DTD SVG 20010904//EN"
 "http://www.w3.org/TR/2001/REC-SVG-20010904/DTD/svg10.dtd">
<svg version="1.0" xmlns="http://www.w3.org/2000/svg"
 width="134.000000pt" height="100.000000pt" viewBox="0 0 134.000000 100.000000"
 preserveAspectRatio="xMidYMid meet">
<metadata>
Created by potrace 1.11, written by Peter Selinger 2001-2013
</metadata>
<g transform="translate(0.000000,100.000000) scale(0.100000,-0.100000)"
fill="#000000" stroke="none">
<path d="M656 845 c-43 -85 -82 -155 -87 -155 -5 0 -9 -6 -9 -12 0 -16 -53
-122 -62 -126 -5 -2 -8 -9 -8 -15 0 -6 -9 -30 -21 -54 -20 -42 -22 -43 -58
-37 -20 4 -41 10 -47 15 -6 5 -14 6 -17 2 -4 -3 -12 -1 -19 4 -7 6 -31 14 -53
18 -22 4 -44 10 -50 15 -5 4 -27 10 -48 14 -34 6 -39 5 -44 -13 -3 -12 -9 -21
-13 -21 -5 0 -11 -14 -15 -30 -4 -17 -10 -30 -14 -30 -4 0 -14 -18 -21 -40 -7
-22 -16 -40 -21 -40 -4 0 -10 -12 -14 -27 -3 -15 -11 -31 -17 -34 -6 -4 -12
-28 -15 -55 l-4 -49 35 40 c20 22 49 54 64 71 16 17 32 39 35 48 6 14 15 16
54 11 27 -4 57 -10 68 -15 37 -15 188 -31 199 -20 19 19 29 10 11 -10 -19 -21
-54 -26 -70 -11 -6 4 -64 14 -130 20 l-120 12 -43 -48 c-24 -26 -57 -62 -73
-79 -23 -24 -29 -40 -29 -74 l0 -42 34 26 c19 14 39 26 45 26 5 0 16 8 23 18
21 30 46 33 152 21 139 -15 135 -14 142 -22 15 -14 47 -6 83 21 48 36 70 49
109 67 17 9 32 20 32 25 0 6 5 10 12 10 6 0 19 6 27 14 37 33 94 56 136 56 24
0 46 -4 49 -9 3 -4 79 -11 168 -15 90 -3 200 -9 246 -13 l82 -6 0 121 0 120
-32 5 c-18 4 -66 9 -105 13 -40 4 -73 10 -73 14 0 4 -37 11 -82 15 -46 4 -87
10 -93 14 -5 5 -57 14 -114 20 -101 12 -104 12 -127 -10 -13 -12 -24 -27 -24
-33 0 -6 -16 -26 -35 -43 -19 -18 -35 -35 -35 -39 0 -4 -17 -26 -37 -49 -21
-24 -47 -53 -58 -67 -11 -13 -27 -28 -35 -33 -8 -4 -5 3 8 17 12 13 22 29 22
35 0 6 7 13 15 17 8 3 15 10 15 17 0 6 16 30 35 53 19 24 35 46 35 50 0 4 16
27 35 50 19 24 35 46 35 50 0 3 8 14 19 25 10 10 20 24 22 30 4 10 23 10 87 0
45 -8 82 -16 82 -20 0 -4 29 -10 65 -14 36 -3 65 -10 65 -14 0 -4 41 -13 92
-20 51 -6 97 -16 103 -20 5 -5 34 -11 63 -15 l52 -7 0 126 c0 104 -2 125 -15
125 -8 0 -15 5 -15 11 0 7 -10 9 -25 7 -14 -3 -28 -2 -30 3 -3 4 -26 11 -50
15 -25 3 -47 10 -50 14 -3 5 -24 11 -48 15 -23 4 -46 11 -52 15 -5 4 -37 13
-70 20 -33 7 -64 16 -70 20 -5 4 -28 11 -50 15 -22 4 -44 10 -50 15 -5 4 -26
10 -46 14 l-36 6 -77 -155z"/>
<path d="M590 204 l-145 -75 -95 7 c-52 3 -117 9 -145 13 -48 7 -87 -3 -104
-26 -9 -12 -63 -48 -83 -56 -12 -4 -18 -17 -18 -37 l0 -30 670 0 670 0 0 119
0 118 -77 7 c-42 3 -106 6 -143 6 -36 0 -70 4 -75 9 -6 5 -77 11 -160 14
l-150 6 -145 -75z"/>
</g>
</svg>
